<svg width="34" height="34" viewBox="0 0 34 34" fill="none" xmlns="http://www.w3.org/2000/svg">
<rect x="0.605469" y="0.589844" width="33.0946" height="33.0946" rx="3" fill="white"/>
<path d="M11.6235 19.2079L10.9323 21.7883L8.40593 21.8417C7.65091 20.4413 7.22266 18.8391 7.22266 17.1365C7.22266 15.49 7.62307 13.9374 8.33282 12.5703H8.33336L10.5826 12.9827L11.5678 15.2184C11.3616 15.8196 11.2492 16.4649 11.2492 17.1365C11.2493 17.8653 11.3813 18.5636 11.6235 19.2079Z" fill="#FBBB00"/>
<path d="M26.9081 15.2832C27.0222 15.8838 27.0816 16.5041 27.0816 17.138C27.0816 17.8489 27.0069 18.5423 26.8645 19.2111C26.3812 21.4871 25.1182 23.4745 23.3687 24.8809L23.3682 24.8803L20.5352 24.7358L20.1343 22.2328C21.2951 21.552 22.2024 20.4866 22.6803 19.2111H17.3711V15.2832H22.7577H26.9081Z" fill="#518EF8"/>
<path d="M23.371 24.8818L23.3716 24.8823C21.67 26.25 19.5086 27.0683 17.1557 27.0683C13.3746 27.0683 10.0872 24.9549 8.41016 21.8448L11.6278 19.2109C12.4662 21.4487 14.6249 23.0417 17.1557 23.0417C18.2435 23.0417 19.2626 22.7476 20.1371 22.2343L23.371 24.8818Z" fill="#28B446"/>
<path d="M23.4843 9.49478L20.2678 12.1281C19.3628 11.5624 18.2929 11.2356 17.1468 11.2356C14.5587 11.2356 12.3596 12.9016 11.5632 15.2197L8.32867 12.5716H8.32812C9.98057 9.38568 13.3094 7.20898 17.1468 7.20898C19.5559 7.20898 21.7648 8.06713 23.4843 9.49478Z" fill="#F14336"/>
</svg>
