<svg id="_x31__px" height="512" viewBox="0 0 24 24" width="512" xmlns="http://www.w3.org/2000/svg"><g><path d="m11.02 22h-10.52c-.154 0-.299-.071-.394-.192-.095-.122-.129-.279-.092-.429l.54-2.17c.272-1.079 1.061-1.929 2.109-2.274l4.018-1.339c.596-.249.968-1.147 1.006-2.471-.46-.418-1.447-1.438-1.447-2.484 0-.367-.123-.442-.124-.443-.152-.041-.232-.135-.291-.282-.05-.126-.485-1.242-.485-1.996 0-.04.005-.08.015-.119.063-.259.215-.519.444-.677.006-.12.013-.253.021-.401.025-.494.06-1.153.06-1.973 0-1.876 2.294-4.75 5.12-4.75 2.557 0 3.795 1.362 4 2.242.625.346 1.17.917 1.17 2.508v2.377c.248.171.401.445.465.634.017.051.025.105.025.159 0 .276-.224.52-.5.52-.251 0-.458-.168-.494-.405-.019-.035-.043-.07-.059-.082-.275 0-.438-.207-.438-.483v-2.72c0-1.305-.419-1.516-.669-1.641-.151-.077-.47-.237-.47-.619-.018-.301-.86-1.49-3.03-1.49-2.38 0-4.12 2.466-4.12 3.75 0 .842-.035 1.518-.063 2.025-.014.289-.027.522-.027.695 0 .259-.197.472-.449.498.016.41.221 1.053.352 1.412.268.19.547.578.547 1.26 0 .564.658 1.367 1.27 1.875.114.095.18.236.18.385 0 1.898-.589 3.188-1.659 3.632l-4.053 1.353c-.724.239-1.267.825-1.454 1.568l-.384 1.547h9.88c.276 0 .5.224.5.5s-.224.5-.5.5z"/></g><g><path d="m18 24c-.066 0-.132-.013-.194-.04-.238-.099-5.806-2.506-5.806-7.424v-4.179c0-.214.137-.405.34-.474l5.5-1.857c.104-.035.217-.035.32 0l5.5 1.857c.203.068.34.259.34.474v4.179c0 4.918-5.568 7.325-5.806 7.425-.062.026-.128.039-.194.039zm-5-11.284v3.82c0 3.785 4.055 5.958 5 6.414.944-.457 5-2.638 5-6.414v-3.82l-5-1.688z"/></g><g><path d="m17.5 19c-.009 0-.019 0-.027-.001-.143-.008-.274-.076-.363-.187l-2-2.5c-.172-.216-.138-.53.078-.703.217-.172.531-.136.703.078l1.65 2.064 3.105-3.105c.195-.195.512-.195.707 0s.195.512 0 .707l-3.5 3.5c-.093.095-.221.147-.353.147z"/></g></svg>