<svg width="35" height="34" viewBox="0 0 35 34" fill="none" xmlns="http://www.w3.org/2000/svg">
<path d="M32.2208 0.589844H2.77838C1.77019 0.590349 0.952873 1.40817 0.953125 2.41661V31.8591C0.95363 32.8673 1.77145 33.6846 2.7799 33.6843H32.2208C33.2295 33.6846 34.0473 32.867 34.0476 31.8583C34.0476 31.858 34.0476 31.8578 34.0476 31.8575V2.4151C34.0471 1.4069 33.2293 0.589591 32.2208 0.589844Z" fill="#4267B2"/>
<path d="M23.8014 33.6843V20.8861H28.116L28.7624 15.8766H23.8014V12.6862C23.8014 11.2391 24.2032 10.2532 26.2781 10.2532H28.9078V5.78483C28.4503 5.72398 26.8806 5.58789 25.0541 5.58789C21.2404 5.58789 18.6304 7.91485 18.6304 12.19V15.8766H14.332V20.8861H18.6304V33.6843H23.8014Z" fill="white"/>
</svg>
