<svg width="34" height="34" viewBox="0 0 34 34" fill="none" xmlns="http://www.w3.org/2000/svg">
<path d="M33.3563 0.589844H0.261719V33.6844H33.3563V0.589844Z" fill="#50ABF1"/>
<path d="M4.642 25.1223C6.84453 26.5192 9.45721 27.3276 12.2579 27.3276C20.1261 27.3276 26.5042 20.9487 26.5042 13.0812C26.5042 12.8848 26.5001 12.6898 26.4925 12.4954C26.7771 12.2715 28.5373 10.8607 28.9687 9.95375C28.9687 9.95375 27.5393 10.5478 26.1404 10.6877C26.1376 10.6877 26.1342 10.6884 26.1315 10.6884C26.1315 10.6884 26.1342 10.687 26.139 10.6836C26.2679 10.5974 28.07 9.3707 28.314 7.90903C28.314 7.90903 27.303 8.44866 25.8875 8.92075C25.6531 8.9986 25.4078 9.07514 25.1549 9.14609C24.2424 8.17227 22.9455 7.56445 21.5058 7.56445C18.7443 7.56445 16.5067 9.80147 16.5067 12.5608C16.5067 12.9502 16.5515 13.3292 16.6362 13.6931C16.2503 13.6773 10.3738 13.3478 6.37599 8.50646C6.37599 8.50646 3.98669 11.7683 7.79983 15.1224C7.79983 15.1224 6.64069 15.0762 5.64066 14.4787C5.64066 14.4787 5.27335 18.4303 9.59162 19.4407C9.59162 19.4407 8.74191 19.7625 7.38634 19.533C7.38634 19.533 8.1444 22.7259 11.981 23.0243C11.981 23.0243 8.9472 25.7649 4.64062 25.1219L4.642 25.1223Z" fill="white"/>
</svg>
